<svg xmlns="http://www.w3.org/2000/svg" viewBox="0 0 414 414" width="414" height="414">
	<style>
		tspan { white-space:pre }
		.shp0 { fill: #fff568;stroke: #707070;stroke-width: 6 } 
		.shp1 { fill: none;stroke: #707070;stroke-width: 6 } 
		.shp2 { fill: #ebebeb;stroke: #707070;stroke-width: 6 } 
	</style>
	<g id="Targets">
		<g id="Circles">
			<path id="Ellipse Yellow" class="shp0" d="M207 1C320.77 1 413 93.23 413 207C413 320.77 320.77 413 207 413C93.23 413 1 320.77 1 207C1 93.23 93.23 1 207 1Z" />
			<path id="Ellipse 7" class="shp1" d="M206.5 40C298.46 40 373 114.54 373 206.5C373 298.46 298.46 373 206.5 373C114.54 373 40 298.46 40 206.5C40 114.54 114.54 40 206.5 40Z" />
			<path id="Ellipse 8" class="shp1" d="M206 80C275.59 80 332 136.41 332 206C332 275.59 275.59 332 206 332C136.41 332 80 275.59 80 206C80 136.41 136.41 80 206 80Z" />
			<path id="Ellipse 9 copy" class="shp2" d="M205 99C263.54 99 311 146.46 311 205C311 263.54 263.54 311 205 311C146.46 311 99 263.54 99 205C99 146.46 146.46 99 205 99Z" />
			<path id="Ellipse 9" class="shp1" d="M205.5 121C252.17 121 290 158.83 290 205.5C290 252.17 252.17 290 205.5 290C158.83 290 121 252.17 121 205.5C121 158.83 158.83 121 205.5 121Z" />
			<path id="Ellipse 10" class="shp1" d="M205 164C227.64 164 246 182.36 246 205C246 227.64 227.64 246 205 246C182.36 246 164 227.64 164 205C164 182.36 182.36 164 205 164Z" />
			<path id="Ellipse 7 copy" class="shp1" d="M206.5 20C309.5 20 393 103.5 393 206.5C393 309.5 309.5 393 206.5 393C103.5 393 20 309.5 20 206.5C20 103.5 103.5 20 206.5 20Z" />
			<path id="Ellipse 8 copy" class="shp1" d="M206 60C286.63 60 352 125.37 352 206C352 286.63 286.63 352 206 352C125.37 352 60 286.63 60 206C60 125.37 125.37 60 206 60Z" />
			<path id="Ellipse 10 copy" class="shp1" d="M205.5 142C240.57 142 269 170.43 269 205.5C269 240.57 240.57 269 205.5 269C170.43 269 142 240.57 142 205.5C142 170.43 170.43 142 205.5 142Z" />
			<path id="Ellipse 10 copy 2" class="shp1" d="M205 187C214.94 187 223 195.06 223 205C223 214.94 214.94 223 205 223C195.06 223 187 214.94 187 205C187 195.06 195.06 187 205 187Z" />
		</g>
	</g>
</svg>