<?xml version="1.0" encoding="utf-8"?>
<!-- Generator: Adobe Illustrator 23.0.3, SVG Export Plug-In . SVG Version: 6.00 Build 0)  -->
<svg version="1.1" id="Слой_1" xmlns="http://www.w3.org/2000/svg" xmlns:xlink="http://www.w3.org/1999/xlink" x="0px" y="0px"
	 viewBox="0 0 1080 1080" style="enable-background:new 0 0 1080 1080;" xml:space="preserve">
<style type="text/css">
	.st0{fill:#326007;stroke:#000000;stroke-miterlimit:10;}
</style>
<g>
	<g>
		<path class="st0" d="M700.5,172.5v643l-10.73,49.2l-10.1,46.32l-30.97,142.07l-216-1.23l-30.66-140.6l-10.09-46.27l-10.82-49.6
			c-0.21-0.1-0.42-0.21-0.63-0.31V172.5H485V54h108.5v118.5H700.5z"/>
		<path class="st0" d="M593.5,172.5V56.67c-10.54-1.27-21.2-2.17-31.95-2.67c-1.31-0.07-2.63-0.12-3.94-0.17
			c-5.68-0.22-11.38-0.33-17.11-0.33c-4.36,0-8.71,0.06-13.04,0.2c-2.68,0.07-5.34,0.17-8.01,0.3c-11.6,0.54-23.09,1.54-34.45,2.97
			V172.5H380.5v642.58c0.21,0.1,0.42,0.21,0.63,0.31l10.82,49.6l10.09,46.27c43.53,14.43,90.08,22.24,138.46,22.24
			c48.64,0,95.43-7.89,139.17-22.48l10.1-46.32l10.73-49.2v-643H593.5z"/>
		<path class="st0" d="M593.5,172.5V96.99c-17.34-2.3-35.03-3.49-53-3.49c-18.83,0-37.36,1.3-55.5,3.83v75.17H380.5v642.58
			c0.21,0.1,0.42,0.21,0.63,0.31l10.82,49.6C437.87,883.38,488,893.5,540.5,893.5c52.77,0,103.16-10.22,149.27-28.8l10.73-49.2v-643
			H593.5z"/>
		<path class="st0" d="M593.5,172.5v-36.12c-17.3-2.56-34.99-3.88-53-3.88c-18.88,0-37.41,1.45-55.5,4.27v35.73H380.5v642.58
			c0.21,0.1,0.42,0.21,0.63,0.31c48.04,23.76,102.15,37.11,159.37,37.11c57.47,0,111.8-13.47,160-37.42V172.5H593.5z"/>
		<path class="st0" d="M540.5,172.5c-58.28,0-112.93,15.59-160,42.82v554.36c47.07,27.23,101.72,42.82,160,42.82
			s112.93-15.59,160-42.82V215.32C653.43,188.09,598.78,172.5,540.5,172.5z"/>
		<path class="st0" d="M540.5,212.5c-59.49,0-114.65,18.55-160,50.19v459.62c45.35,31.64,100.51,50.19,160,50.19
			s114.65-18.55,160-50.19V262.69C655.15,231.05,599.99,212.5,540.5,212.5z"/>
		<path class="st0" d="M540.5,252.5c-61.47,0-117.54,23.11-160,61.11v357.78c42.46,38,98.53,61.11,160,61.11s117.54-23.11,160-61.11
			V313.61C658.04,275.61,601.97,252.5,540.5,252.5z"/>
		<path class="st0" d="M700.5,372.48v240.04c-36.49,48.57-94.58,79.98-160,79.98s-123.51-31.41-160-79.98V372.48
			c36.49-48.57,94.58-79.98,160-79.98S664.01,323.91,700.5,372.48z"/>
		<circle class="st0" cx="540.5" cy="492.5" r="160"/>
		<circle class="st0" cx="540.5" cy="492.5" r="120"/>
		<circle class="st0" cx="540.5" cy="492.5" r="80"/>
		<circle class="st0" cx="540.5" cy="492.5" r="40"/>
	</g>
</g>
</svg>
