<?xml version="1.0" encoding="UTF-8" standalone="no"?>
<svg
   xmlns:dc="http://purl.org/dc/elements/1.1/"
   xmlns:cc="http://creativecommons.org/ns#"
   xmlns:rdf="http://www.w3.org/1999/02/22-rdf-syntax-ns#"
   xmlns:svg="http://www.w3.org/2000/svg"
   xmlns="http://www.w3.org/2000/svg"
   xmlns:xlink="http://www.w3.org/1999/xlink"
   id="svg8"
   version="1.1"
   viewBox="0 0 85.984291 268.43567"
   height="268.43567mm"
   width="85.984291mm">
  <defs
     id="defs2">
    <path
       id="SVGID_1_"
       d="m 702.98,153.05 v 652.96 l -10.9,49.96 -10.26,47.04 -31.45,144.27 -219.35,-0.24 -31.14,-143.79 -10.25,-46.99 -10.99,-50.37 c -0.21,-0.1 -0.43,-0.21 -0.64,-0.31 V 153.05 H 484.12 V 32.72 H 594.3 v 120.34 h 108.68 z" />
  </defs>
  <metadata
     id="metadata5">
    <rdf:RDF>
      <cc:Work
         rdf:about="">
        <dc:format>image/svg+xml</dc:format>
        <dc:type
           rdf:resource="http://purl.org/dc/dcmitype/StillImage" />
        <dc:title></dc:title>
      </cc:Work>
    </rdf:RDF>
  </metadata>
  <g
     transform="translate(16.533811,-37.294074)"
     id="layer1">
    <g
       transform="matrix(0.26458333,0,0,0.26458333,-116.54631,28.636907)"
       id="g851">
	<g
   id="g849">
		<g
   id="g847">
			<defs
   id="defs818">
				<path
   id="path862"
   d="m 702.98,153.05 v 652.96 l -10.9,49.96 -10.26,47.04 -31.45,144.27 -219.35,-0.24 -31.14,-143.79 -10.25,-46.99 -10.99,-50.37 c -0.21,-0.1 -0.43,-0.21 -0.64,-0.31 V 153.05 H 484.12 V 32.72 H 594.3 v 120.34 h 108.68 z" />

			</defs>

			<clipPath
   id="SVGID_2_">
				<use
   height="100%"
   width="100%"
   y="0"
   x="0"
   xlink:href="#SVGID_1_"
   style="overflow:visible"
   id="use820" />

			</clipPath>

			<path
   style="fill:#326007;stroke:#000000;stroke-miterlimit:10"
   class="st0"
   d="m 702.98,153.05 v 652.96 l -10.9,49.96 -10.26,47.04 -31.45,144.27 -219.35,-0.24 -31.14,-143.79 -10.25,-46.99 -10.99,-50.37 c -0.21,-0.1 -0.43,-0.21 -0.64,-0.31 V 153.05 H 484.12 V 32.72 H 594.3 v 120.34 h 108.68 z"
   clip-path="url(#SVGID_2_)"
   id="path823" />

			<circle
   style="fill:#326007;stroke:#000000;stroke-width:5;stroke-miterlimit:10"
   class="st1"
   cx="540.5"
   cy="540"
   r="447.82999"
   clip-path="url(#SVGID_2_)"
   id="circle825" />

			<circle
   style="fill:#326007;stroke:#000000;stroke-width:5;stroke-miterlimit:10"
   class="st1"
   cx="540.5"
   cy="540"
   r="405.17999"
   clip-path="url(#SVGID_2_)"
   id="circle827" />

			<circle
   style="fill:#326007;stroke:#000000;stroke-width:5;stroke-miterlimit:10"
   class="st1"
   cx="540.5"
   cy="540"
   r="364.56"
   clip-path="url(#SVGID_2_)"
   id="circle829" />

			<circle
   style="fill:#326007;stroke:#000000;stroke-width:5;stroke-miterlimit:10"
   class="st1"
   cx="540.5"
   cy="540"
   r="325.47"
   clip-path="url(#SVGID_2_)"
   id="circle831" />

			<circle
   style="fill:#326007;stroke:#000000;stroke-width:5;stroke-miterlimit:10"
   class="st1"
   cx="540.5"
   cy="540"
   r="286.37"
   clip-path="url(#SVGID_2_)"
   id="circle833" />

			<circle
   style="fill:#326007;stroke:#000000;stroke-width:5;stroke-miterlimit:10"
   class="st1"
   cx="540.5"
   cy="540"
   r="243.72"
   clip-path="url(#SVGID_2_)"
   id="circle835" />

			<circle
   style="fill:#326007;stroke:#000000;stroke-width:5;stroke-miterlimit:10"
   class="st1"
   cx="540.5"
   cy="540"
   r="203.10001"
   clip-path="url(#SVGID_2_)"
   id="circle837" />

			<circle
   style="fill:#326007;stroke:#000000;stroke-width:5;stroke-miterlimit:10"
   class="st1"
   cx="540.5"
   cy="540"
   r="162.48"
   clip-path="url(#SVGID_2_)"
   id="circle839" />

			<circle
   style="fill:#326007;stroke:#000000;stroke-width:5;stroke-miterlimit:10"
   class="st1"
   cx="540.5"
   cy="540"
   r="121.86"
   clip-path="url(#SVGID_2_)"
   id="circle841" />

			<circle
   style="fill:#326007;stroke:#000000;stroke-width:5;stroke-miterlimit:10"
   class="st1"
   cx="540.5"
   cy="540"
   r="81.239998"
   clip-path="url(#SVGID_2_)"
   id="circle843" />

			<circle
   style="fill:#326007;stroke:#000000;stroke-width:5;stroke-miterlimit:10"
   class="st1"
   cx="540.5"
   cy="540"
   r="40.619999"
   clip-path="url(#SVGID_2_)"
   id="circle845" />

		</g>

	</g>

</g>
  </g>
  <style
     type="text/css"
     id="style815">
	.st0{clip-path:url(#SVGID_2_);fill:#326007;stroke:#000000;stroke-miterlimit:10;}
	.st1{clip-path:url(#SVGID_2_);fill:#326007;stroke:#000000;stroke-width:5;stroke-miterlimit:10;}
</style>
</svg>
