<svg id="Слой_1" data-name="Слой 1" xmlns="http://www.w3.org/2000/svg" xmlns:xlink="http://www.w3.org/1999/xlink" width="1080" height="1080" viewBox="0 0 1080 1080"><defs><clipPath id="clip-path"><path d="M703,153.05V806l-10.9,50-10.25,47-31.45,144.27L431,1047,399.89,903.26l-10.24-47-11-50.37-.64-.31V153.05H484.14V32.72H594.32V153.05Z" style="fill:none"/></clipPath></defs><title>FullSize</title><g style="clip-path:url(#clip-path)"><path d="M703,153.05V806l-10.9,50-10.25,47-31.45,144.27L431,1047,399.89,903.26l-10.24-47-11-50.37-.64-.31V153.05H484.14V32.72H594.32V153.05Z" style="fill:#326007;stroke:#000;stroke-miterlimit:10"/><circle cx="540.5" cy="540" r="447.83" style="fill:#326007;stroke:#000;stroke-miterlimit:10;stroke-width:5px"/><circle cx="540.5" cy="540" r="405.18" style="fill:#326007;stroke:#000;stroke-miterlimit:10;stroke-width:5px"/><circle cx="540.5" cy="540" r="364.56" style="fill:#326007;stroke:#000;stroke-miterlimit:10;stroke-width:5px"/><circle cx="540.5" cy="540" r="325.47" style="fill:#326007;stroke:#000;stroke-miterlimit:10;stroke-width:5px"/><circle cx="540.5" cy="540" r="286.37" style="fill:#326007;stroke:#000;stroke-miterlimit:10;stroke-width:5px"/><circle cx="540.5" cy="540" r="243.72" style="fill:#326007;stroke:#000;stroke-miterlimit:10;stroke-width:5px"/><circle cx="540.5" cy="540" r="203.1" style="fill:#326007;stroke:#000;stroke-miterlimit:10;stroke-width:5px"/><circle cx="540.5" cy="540" r="162.48" style="fill:#326007;stroke:#000;stroke-miterlimit:10;stroke-width:5px"/><circle cx="540.5" cy="540" r="121.86" style="fill:#326007;stroke:#000;stroke-miterlimit:10;stroke-width:5px"/><circle cx="540.5" cy="540" r="81.24" style="fill:#326007;stroke:#000;stroke-miterlimit:10;stroke-width:5px"/><circle cx="540.5" cy="540" r="40.62" style="fill:#326007;stroke:#000;stroke-miterlimit:10;stroke-width:5px"/></g></svg>