<?xml version="1.0" encoding="utf-8"?>
<!-- Generator: Adobe Illustrator 23.0.2, SVG Export Plug-In . SVG Version: 6.00 Build 0)  -->
<svg version="1.1" id="Слой_1" xmlns="http://www.w3.org/2000/svg" xmlns:xlink="http://www.w3.org/1999/xlink" x="0px" y="0px"
	 viewBox="0 0 1080 1080" style="enable-background:new 0 0 1080 1080;" xml:space="preserve">
<style type="text/css">
	.st0{clip-path:url(#SVGID_2_);fill:#326007;stroke:#000000;stroke-miterlimit:10;}
	.st1{clip-path:url(#SVGID_2_);fill:#326007;stroke:#000000;stroke-width:5;stroke-miterlimit:10;}
</style>
<g>
	<g>
		<g>
			<defs>
				<path id="SVGID_1_" d="M702.98,153.05v652.96l-10.9,49.96l-10.26,47.04l-31.45,144.27l-219.35-0.24l-31.14-143.79l-10.25-46.99
					l-10.99-50.37c-0.21-0.1-0.43-0.21-0.64-0.31V153.05h106.12V32.72h110.18v120.34H702.98z"/>
			</defs>
			<clipPath id="SVGID_2_">
				<use xlink:href="#SVGID_1_"  style="overflow:visible;"/>
			</clipPath>
			<path class="st0" d="M702.98,153.05v652.96l-10.9,49.96l-10.26,47.04l-31.45,144.27l-219.35-0.24l-31.14-143.79l-10.25-46.99
				l-10.99-50.37c-0.21-0.1-0.43-0.21-0.64-0.31V153.05h106.12V32.72h110.18v120.34H702.98z"/>
			<circle class="st1" cx="540.5" cy="540" r="447.83"/>
			<circle class="st1" cx="540.5" cy="540" r="405.18"/>
			<circle class="st1" cx="540.5" cy="540" r="364.56"/>
			<circle class="st1" cx="540.5" cy="540" r="325.47"/>
			<circle class="st1" cx="540.5" cy="540" r="286.37"/>
			<circle class="st1" cx="540.5" cy="540" r="243.72"/>
			<circle class="st1" cx="540.5" cy="540" r="203.1"/>
			<circle class="st1" cx="540.5" cy="540" r="162.48"/>
			<circle class="st1" cx="540.5" cy="540" r="121.86"/>
			<circle class="st1" cx="540.5" cy="540" r="81.24"/>
			<circle class="st1" cx="540.5" cy="540" r="40.62"/>
		</g>
	</g>
</g>
</svg>
