<?xml version="1.0" encoding="UTF-8" standalone="no"?>
<!-- Generator: Adobe Illustrator 23.0.2, SVG Export Plug-In . SVG Version: 6.00 Build 0)  -->

<svg
   xmlns:dc="http://purl.org/dc/elements/1.1/"
   xmlns:cc="http://creativecommons.org/ns#"
   xmlns:rdf="http://www.w3.org/1999/02/22-rdf-syntax-ns#"
   xmlns:svg="http://www.w3.org/2000/svg"
   xmlns="http://www.w3.org/2000/svg"
   xmlns:sodipodi="http://sodipodi.sourceforge.net/DTD/sodipodi-0.dtd"
   xmlns:inkscape="http://www.inkscape.org/namespaces/inkscape"
   version="1.2"
   id="Слой_1"
   x="0px"
   y="0px"
   viewBox="0 0 329.95999 1019.5622"
   xml:space="preserve"
   sodipodi:docname="FullSize4.svg"
   width="329.95999"
   height="1019.5622"
   inkscape:version="0.92.3 (2405546, 2018-03-11)"><metadata
   id="metadata33"><rdf:RDF><cc:Work
       rdf:about=""><dc:format>image/svg+xml</dc:format><dc:type
         rdf:resource="http://purl.org/dc/dcmitype/StillImage" /></cc:Work></rdf:RDF></metadata><defs
   id="defs31" /><sodipodi:namedview
   pagecolor="#ffffff"
   bordercolor="#666666"
   borderopacity="1"
   objecttolerance="10"
   gridtolerance="10"
   guidetolerance="10"
   inkscape:pageopacity="0"
   inkscape:pageshadow="2"
   inkscape:window-width="725"
   inkscape:window-height="480"
   id="namedview29"
   showgrid="false"
   inkscape:zoom="0.21851852"
   inkscape:cx="164.48"
   inkscape:cy="509.7822"
   inkscape:window-x="0"
   inkscape:window-y="0"
   inkscape:window-maximized="0"
   inkscape:current-layer="Слой_1" />
<path
   stroke-miterlimit="10"
   d="m 327.46,122.83 v 652.96 l -4,18.33 -6.9,31.64 -3.79,17.37 -6.46,29.66 -3.99,18.29 -10.53,48.32 -16.93,77.66 L 55.51,1016.82 38.78,939.57 28.33,891.33 24.37,873.04 17.92,843.46 14.13,826.05 7.26,794.54 3.14,775.68 C 2.93,775.58 2.71,775.47 2.5,775.37 V 122.83 H 108.62 V 2.5 H 218.8 v 120.33 z"
   id="path2"
   inkscape:connector-curvature="0"
   style="fill:#326007;stroke:#000000;stroke-width:5;stroke-miterlimit:10" />
<path
   stroke-miterlimit="10"
   d="M 218.8,122.83 V 65.16 c -17.64,-2.12 -35.61,-3.21 -53.82,-3.21 -19.09,0 -37.9,1.19 -56.36,3.52 v 57.36 H 2.5 v 652.54 c 0.21,0.1 0.43,0.21 0.64,0.31 l 4.12,18.86 6.87,31.51 3.79,17.41 6.45,29.58 3.96,18.29 10.45,48.24 c 40.03,11.75 82.38,18.04 126.2,18.04 44.04,0 86.6,-6.36 126.81,-18.21 l 10.53,-48.32 3.99,-18.29 6.46,-29.66 3.79,-17.37 6.9,-31.64 4,-18.33 V 122.83 Z"
   id="path4"
   inkscape:connector-curvature="0"
   style="fill:#326007;stroke:#000000;stroke-width:5;stroke-miterlimit:10" />
<path
   stroke-miterlimit="10"
   d="m 285.5,122.83 h -66.7 v -14.68 c -17.61,-2.34 -35.57,-3.55 -53.82,-3.55 -19.12,0 -37.94,1.32 -56.36,3.89 v 14.34 H 44.46 c -14.34,4.46 -28.34,9.7 -41.96,15.66 v 636.88 c 0.21,0.1 0.43,0.21 0.64,0.31 l 4.12,18.86 6.87,31.51 3.79,17.41 6.45,29.58 3.96,18.29 c 42.69,15.3 88.7,23.63 136.65,23.63 48.21,0 94.45,-8.42 137.34,-23.88 l 3.99,-18.29 6.46,-29.66 3.79,-17.37 6.9,-31.64 4,-18.33 v -637.3 c -13.62,-5.96 -27.62,-11.2 -41.96,-15.66 z"
   id="path6"
   inkscape:connector-curvature="0"
   style="fill:#326007;stroke:#000000;stroke-width:5;stroke-miterlimit:10" />
<path
   stroke-miterlimit="10"
   d="m 164.98,145.22 c -58.38,0 -113.56,13.72 -162.48,38.12 v 592.03 c 0.21,0.1 0.43,0.21 0.64,0.31 l 4.12,18.86 6.87,31.51 3.79,17.41 c 44.98,19.86 94.73,30.88 147.06,30.88 52.61,0 102.62,-11.14 147.79,-31.21 l 3.79,-17.37 6.9,-31.64 4,-18.33 V 183.34 c -48.92,-24.4 -104.1,-38.12 -162.48,-38.12 z"
   id="path8"
   inkscape:connector-curvature="0"
   style="fill:#326007;stroke:#000000;stroke-width:5;stroke-miterlimit:10" />
<path
   stroke-miterlimit="10"
   d="m 327.46,227.71 v 548.08 l -4,18.33 c -46.89,26.2 -100.94,41.13 -158.48,41.13 -57.23,0 -111,-14.77 -157.72,-40.71 L 3.14,775.68 C 2.93,775.58 2.71,775.47 2.5,775.37 V 227.71 c 47.81,-27.61 103.3,-43.4 162.48,-43.4 59.18,0 114.67,15.79 162.48,43.4 z"
   id="path10"
   inkscape:connector-curvature="0"
   style="fill:#326007;stroke:#000000;stroke-width:5;stroke-miterlimit:10" />
<path
   stroke-miterlimit="10"
   d="m 327.46,273.93 v 471.7 c -46.17,31.86 -102.14,50.52 -162.48,50.52 -60.34,0 -116.31,-18.66 -162.48,-50.52 v -471.7 c 46.17,-31.86 102.14,-50.52 162.48,-50.52 60.34,0 116.31,18.66 162.48,50.52 z"
   id="path12"
   inkscape:connector-curvature="0"
   style="fill:#326007;stroke:#000000;stroke-width:5;stroke-miterlimit:10" />
<path
   stroke-miterlimit="10"
   d="M 327.46,328.12 V 691.44 C 284.34,730.03 227.4,753.5 164.98,753.5 102.56,753.5 45.62,730.03 2.5,691.44 V 328.12 c 43.12,-38.59 100.06,-62.06 162.48,-62.06 62.42,0 119.36,23.47 162.48,62.06 z"
   id="path14"
   inkscape:connector-curvature="0"
   style="fill:#326007;stroke:#000000;stroke-width:5;stroke-miterlimit:10" />
<path
   stroke-miterlimit="10"
   d="m 327.46,387.9 v 243.76 c -37.05,49.32 -96.04,81.22 -162.48,81.22 -66.44,0 -125.43,-31.9 -162.48,-81.22 V 387.9 c 37.05,-49.32 96.04,-81.22 162.48,-81.22 66.44,0 125.43,31.9 162.48,81.22 z"
   id="path16"
   inkscape:connector-curvature="0"
   style="fill:#326007;stroke:#000000;stroke-width:5;stroke-miterlimit:10" />
<circle
   stroke-miterlimit="10"
   cx="164.98"
   cy="509.78"
   r="162.48"
   id="circle18"
   style="fill:#326007;stroke:#000000;stroke-width:5;stroke-miterlimit:10" />
<circle
   stroke-miterlimit="10"
   cx="164.98"
   cy="509.78"
   r="121.86"
   id="circle20"
   style="fill:#326007;stroke:#000000;stroke-width:5;stroke-miterlimit:10" />
<circle
   stroke-miterlimit="10"
   cx="164.98"
   cy="509.78"
   r="81.239998"
   id="circle22"
   style="fill:#326007;stroke:#000000;stroke-width:5;stroke-miterlimit:10" />
<circle
   stroke-miterlimit="10"
   cx="164.98"
   cy="509.78"
   r="40.619999"
   id="circle24"
   style="fill:#326007;stroke:#000000;stroke-width:5;stroke-miterlimit:10" />
<path
   d="m 327.46,122.83 v 652.96 l -4,18.33 -6.9,31.64 -3.79,17.37 -6.46,29.66 -3.99,18.29 -10.53,48.32 -16.93,77.66 L 55.51,1016.82 38.78,939.57 28.33,891.33 24.37,873.04 17.92,843.46 14.13,826.05 7.26,794.54 3.14,775.68 C 2.93,775.58 2.71,775.47 2.5,775.37 V 122.83 H 108.62 V 2.5 H 218.8 v 120.33 z"
   id="path26"
   inkscape:connector-curvature="0"
   style="fill:none" />
</svg>