<?xml version="1.0" encoding="UTF-8" standalone="no"?>
<!-- Generator: Adobe Illustrator 23.0.3, SVG Export Plug-In . SVG Version: 6.00 Build 0)  -->

<svg
   xmlns:dc="http://purl.org/dc/elements/1.1/"
   xmlns:cc="http://creativecommons.org/ns#"
   xmlns:rdf="http://www.w3.org/1999/02/22-rdf-syntax-ns#"
   xmlns:svg="http://www.w3.org/2000/svg"
   xmlns="http://www.w3.org/2000/svg"
   xmlns:sodipodi="http://sodipodi.sourceforge.net/DTD/sodipodi-0.dtd"
   xmlns:inkscape="http://www.inkscape.org/namespaces/inkscape"
   version="1.1"
   id="Слой_1"
   x="0px"
   y="0px"
   viewBox="0 0 763 942.46002"
   xml:space="preserve"
   sodipodi:docname="MKPS.svg"
   inkscape:version="0.92.3 (2405546, 2018-03-11)"
   width="763"
   height="942.46002"><metadata
   id="metadata19"><rdf:RDF><cc:Work
       rdf:about=""><dc:format>image/svg+xml</dc:format><dc:type
         rdf:resource="http://purl.org/dc/dcmitype/StillImage" /></cc:Work></rdf:RDF></metadata><defs
   id="defs17" /><sodipodi:namedview
   pagecolor="#ffffff"
   bordercolor="#666666"
   borderopacity="1"
   objecttolerance="10"
   gridtolerance="10"
   guidetolerance="10"
   inkscape:pageopacity="0"
   inkscape:pageshadow="2"
   inkscape:window-width="1920"
   inkscape:window-height="1001"
   id="namedview15"
   showgrid="false"
   inkscape:zoom="0.6180637"
   inkscape:cx="128.91796"
   inkscape:cy="350.07306"
   inkscape:window-x="-9"
   inkscape:window-y="-9"
   inkscape:window-maximized="1"
   inkscape:current-layer="g12" />
<style
   type="text/css"
   id="style2">
	.st0{fill:#FFFFFF;stroke:#000000;stroke-width:2;stroke-miterlimit:10;}
	.st1{fill:#FFFFFF;stroke:#000000;stroke-miterlimit:10;}
</style>
<g
   id="g12"
   transform="translate(-143,-56.77)">
	<polygon
   class="st0"
   points="901,371.42 901,691.62 646.48,994.23 391.96,994.23 148,689.27 148,369.07 391.96,61.77 655.86,61.77 "
   id="polygon4"
   style="fill:#ffffff;stroke:#000000;stroke-width:10;stroke-miterlimit:10;stroke-dasharray:none" />
	<polygon
   class="st1"
   points="882.23,374.94 882.23,682.24 640.62,978.98 403.69,978.98 163.25,681.06 163.25,374.94 403.69,75.85 647.65,75.85 "
   id="polygon6"
   style="fill:#ffffff;stroke:#000000;stroke-width:5;stroke-miterlimit:10;stroke-dasharray:none" />
	<polygon
   class="st1"
   points="443.57,791.32 605.43,791.32 768.46,601.31 768.46,373.76 647.65,75.85 403.69,75.85 281.71,373.76 281.71,600.13 "
   id="polygon8"
   style="fill:#ffffff;stroke:#000000;stroke-width:5;stroke-miterlimit:10;stroke-dasharray:none" />
	<polygon
   class="st1"
   points="646.48,374.94 646.48,516.86 567.9,630.63 482.28,630.63 404.86,514.51 404.86,377.28 484.62,107.52 567.9,107.52 "
   id="polygon10"
   style="fill:#ffffff;stroke:#000000;stroke-width:5;stroke-miterlimit:10;stroke-dasharray:none" />
</g>
</svg>