<?xml version="1.0" encoding="UTF-8" standalone="no"?>
<!-- Generator: Adobe Illustrator 23.0.3, SVG Export Plug-In . SVG Version: 6.00 Build 0)  -->

<svg
   xmlns:dc="http://purl.org/dc/elements/1.1/"
   xmlns:cc="http://creativecommons.org/ns#"
   xmlns:rdf="http://www.w3.org/1999/02/22-rdf-syntax-ns#"
   xmlns:svg="http://www.w3.org/2000/svg"
   xmlns="http://www.w3.org/2000/svg"
   xmlns:sodipodi="http://sodipodi.sourceforge.net/DTD/sodipodi-0.dtd"
   xmlns:inkscape="http://www.inkscape.org/namespaces/inkscape"
   version="1.1"
   id="Слой_1"
   x="0px"
   y="0px"
   viewBox="0 0 766.72791 729.19012"
   xml:space="preserve"
   sodipodi:docname="Star.svg"
   width="766.72791"
   height="729.19012"
   inkscape:version="0.92.3 (2405546, 2018-03-11)"><metadata
   id="metadata95"><rdf:RDF><cc:Work
       rdf:about=""><dc:format>image/svg+xml</dc:format><dc:type
         rdf:resource="http://purl.org/dc/dcmitype/StillImage" /></cc:Work></rdf:RDF></metadata><defs
   id="defs93" /><sodipodi:namedview
   pagecolor="#ffffff"
   bordercolor="#666666"
   borderopacity="1"
   objecttolerance="10"
   gridtolerance="10"
   guidetolerance="10"
   inkscape:pageopacity="0"
   inkscape:pageshadow="2"
   inkscape:window-width="1920"
   inkscape:window-height="1001"
   id="namedview91"
   showgrid="false"
   inkscape:zoom="0.6180637"
   inkscape:cx="592.7771"
   inkscape:cy="649.78903"
   inkscape:window-x="-9"
   inkscape:window-y="-9"
   inkscape:window-maximized="1"
   inkscape:current-layer="g88" />
<style
   type="text/css"
   id="style2">
	.st0{fill:#326007;}
	.st1{fill:none;stroke:#000000;stroke-miterlimit:10;}
</style>
<g
   id="g88"
   transform="translate(-13.642964,-251.97481)">
	
	
	
	
	
	
	
	
	
	
	<g
   style="stroke:#000000;stroke-width:5;stroke-miterlimit:4;stroke-dasharray:none;stroke-opacity:1"
   id="g8"
   transform="translate(-143.9981,186.06496)">
		<polygon
   style="fill:#326007;stroke:#000000;stroke-width:5;stroke-miterlimit:4;stroke-dasharray:none;stroke-opacity:1"
   class="st0"
   points="920.83,345.58 775.75,792.11 306.25,792.11 161.17,345.58 541,69.62 "
   id="polygon4" />
		<path
   style="stroke:#000000;stroke-width:5;stroke-miterlimit:4;stroke-dasharray:none;stroke-opacity:1"
   inkscape:connector-curvature="0"
   d="M 541,70.24 920.25,345.78 775.39,791.61 H 306.61 L 161.75,345.78 541,70.24 M 541,69 160.58,345.39 305.89,792.6 H 776.12 L 921.43,345.39 Z"
   id="path6" />
	</g><g
   style="stroke:#000000;stroke-width:5;stroke-miterlimit:4;stroke-dasharray:none;stroke-opacity:1"
   id="g16"
   transform="translate(-143.9981,186.06496)">
		<polygon
   style="fill:#326007;stroke:#000000;stroke-width:5;stroke-miterlimit:4;stroke-dasharray:none;stroke-opacity:1"
   class="st0"
   points="883.29,356.44 752.74,758.25 330.26,758.25 199.71,356.44 541.5,108.12 "
   id="polygon10" />
		<g
   style="stroke:#000000;stroke-width:5;stroke-miterlimit:4;stroke-dasharray:none;stroke-opacity:1"
   id="g14">
			<path
   style="stroke:#000000;stroke-width:5;stroke-miterlimit:4;stroke-dasharray:none;stroke-opacity:1"
   inkscape:connector-curvature="0"
   d="M 541.5,108.74 882.7,356.64 752.38,757.75 H 330.62 L 200.3,356.64 541.5,108.74 m 0,-1.24 -342.38,248.75 130.78,402.5 H 753.1 L 883.88,356.26 Z"
   id="path12" />
		</g>
	</g><g
   style="stroke:#000000;stroke-width:5;stroke-miterlimit:4;stroke-dasharray:none;stroke-opacity:1"
   id="g24"
   transform="translate(-143.9981,186.06496)">
		<polygon
   style="fill:#326007;stroke:#000000;stroke-width:5;stroke-miterlimit:4;stroke-dasharray:none;stroke-opacity:1"
   class="st0"
   points="845.25,369.81 729.23,726.89 353.77,726.89 237.75,369.81 541.5,149.12 "
   id="polygon18" />
		<g
   style="stroke:#000000;stroke-width:5;stroke-miterlimit:4;stroke-dasharray:none;stroke-opacity:1"
   id="g22">
			<path
   style="stroke:#000000;stroke-width:5;stroke-miterlimit:4;stroke-dasharray:none;stroke-opacity:1"
   inkscape:connector-curvature="0"
   d="M 541.5,149.74 844.66,370 728.86,726.39 H 354.14 L 238.34,370 541.5,149.74 m 0,-1.24 -304.34,221.11 116.25,357.77 H 729.59 L 845.84,369.61 Z"
   id="path20" />
		</g>
	</g><g
   style="stroke:#000000;stroke-width:5;stroke-miterlimit:4;stroke-dasharray:none;stroke-opacity:1"
   id="g32"
   transform="translate(-143.9981,186.06496)">
		<polygon
   style="fill:#326007;stroke:#000000;stroke-width:5;stroke-miterlimit:4;stroke-dasharray:none;stroke-opacity:1"
   class="st0"
   points="806.71,382.67 705.22,695.02 376.78,695.02 275.29,382.67 541,189.62 "
   id="polygon26" />
		<g
   style="stroke:#000000;stroke-width:5;stroke-miterlimit:4;stroke-dasharray:none;stroke-opacity:1"
   id="g30">
			<path
   style="stroke:#000000;stroke-width:5;stroke-miterlimit:4;stroke-dasharray:none;stroke-opacity:1"
   inkscape:connector-curvature="0"
   d="M 541,190.24 806.12,382.86 704.85,694.52 H 377.15 L 275.88,382.86 541,190.24 M 541,189 274.7,382.48 376.42,695.53 H 705.58 L 807.3,382.48 Z"
   id="path28" />
		</g>
	</g><g
   style="stroke:#000000;stroke-width:5;stroke-miterlimit:4;stroke-dasharray:none;stroke-opacity:1"
   id="g40"
   transform="translate(-143.9981,186.06496)">
		<polygon
   style="fill:#326007;stroke:#000000;stroke-width:5;stroke-miterlimit:4;stroke-dasharray:none;stroke-opacity:1"
   class="st0"
   points="769.17,393.53 682.21,661.16 400.79,661.16 313.83,393.53 541.5,228.12 "
   id="polygon34" />
		<g
   style="stroke:#000000;stroke-width:5;stroke-miterlimit:4;stroke-dasharray:none;stroke-opacity:1"
   id="g38">
			<path
   style="stroke:#000000;stroke-width:5;stroke-miterlimit:4;stroke-dasharray:none;stroke-opacity:1"
   inkscape:connector-curvature="0"
   d="M 541.5,228.74 768.58,393.72 681.84,660.67 H 401.16 L 314.42,393.72 541.5,228.74 m 0,-1.24 -228.25,165.84 87.19,268.33 h 282.14 l 87.19,-268.33 z"
   id="path36" />
		</g>
	</g><g
   style="stroke:#000000;stroke-width:5;stroke-miterlimit:4;stroke-dasharray:none;stroke-opacity:1"
   id="g48"
   transform="translate(-143.9981,186.06496)">
		<polygon
   style="fill:#326007;stroke:#000000;stroke-width:5;stroke-miterlimit:4;stroke-dasharray:none;stroke-opacity:1"
   class="st0"
   points="730.62,406.39 658.19,629.3 423.81,629.3 351.38,406.39 541,268.62 "
   id="polygon42" />
		<g
   style="stroke:#000000;stroke-width:5;stroke-miterlimit:4;stroke-dasharray:none;stroke-opacity:1"
   id="g46">
			<path
   style="stroke:#000000;stroke-width:5;stroke-miterlimit:4;stroke-dasharray:none;stroke-opacity:1"
   inkscape:connector-curvature="0"
   d="M 541,269.24 730.04,406.58 657.83,628.8 H 424.17 L 351.96,406.58 541,269.24 M 541,268 350.79,406.2 423.44,629.81 H 658.55 L 731.2,406.2 Z"
   id="path44" />
		</g>
	</g><g
   style="stroke:#000000;stroke-width:5;stroke-miterlimit:4;stroke-dasharray:none;stroke-opacity:1"
   id="g56"
   transform="translate(-143.9981,186.06496)">
		<polygon
   style="fill:#326007;stroke:#000000;stroke-width:5;stroke-miterlimit:4;stroke-dasharray:none;stroke-opacity:1"
   class="st0"
   points="692.58,417.75 634.68,595.94 447.32,595.94 389.42,417.75 541,307.62 "
   id="polygon50" />
		<g
   style="stroke:#000000;stroke-width:5;stroke-miterlimit:4;stroke-dasharray:none;stroke-opacity:1"
   id="g54">
			<path
   style="stroke:#000000;stroke-width:5;stroke-miterlimit:4;stroke-dasharray:none;stroke-opacity:1"
   inkscape:connector-curvature="0"
   d="m 541,308.24 150.99,109.7 -57.67,177.5 H 447.68 L 390.01,417.94 541,308.24 m 0,-1.24 -152.17,110.56 58.12,178.89 h 188.09 l 58.12,-178.89 z"
   id="path52" />
		</g>
	</g><g
   style="stroke:#000000;stroke-width:5;stroke-miterlimit:4;stroke-dasharray:none;stroke-opacity:1"
   id="g64"
   transform="translate(-143.9981,186.06496)">
		<polygon
   style="fill:#326007;stroke:#000000;stroke-width:5;stroke-miterlimit:4;stroke-dasharray:none;stroke-opacity:1"
   class="st0"
   points="654.54,431.11 611.17,564.58 470.83,564.58 427.46,431.11 541,348.62 "
   id="polygon58" />
		<g
   style="stroke:#000000;stroke-width:5;stroke-miterlimit:4;stroke-dasharray:none;stroke-opacity:1"
   id="g62">
			<path
   style="stroke:#000000;stroke-width:5;stroke-miterlimit:4;stroke-dasharray:none;stroke-opacity:1"
   inkscape:connector-curvature="0"
   d="M 541,349.24 653.95,431.3 610.81,564.08 H 471.19 L 428.05,431.3 541,349.24 m 0,-1.24 -114.13,82.92 43.59,134.16 h 141.07 l 43.59,-134.16 z"
   id="path60" />
		</g>
	</g><g
   style="stroke:#000000;stroke-width:5;stroke-miterlimit:4;stroke-dasharray:none;stroke-opacity:1"
   id="g72"
   transform="translate(-143.9981,186.06496)">
		<polygon
   style="fill:#326007;stroke:#000000;stroke-width:5;stroke-miterlimit:4;stroke-dasharray:none;stroke-opacity:1"
   class="st0"
   points="616.5,443.47 587.66,532.22 494.34,532.22 465.5,443.47 541,388.62 "
   id="polygon66" />
		<g
   style="stroke:#000000;stroke-width:5;stroke-miterlimit:4;stroke-dasharray:none;stroke-opacity:1"
   id="g70">
			<path
   style="stroke:#000000;stroke-width:5;stroke-miterlimit:4;stroke-dasharray:none;stroke-opacity:1"
   inkscape:connector-curvature="0"
   d="m 541,389.24 74.91,54.42 -28.61,88.06 H 494.7 L 466.09,443.66 541,389.24 m 0,-1.24 -76.08,55.28 29.06,89.44 h 94.05 l 29.06,-89.44 z"
   id="path68" />
		</g>
	</g><g
   style="stroke:#000000;stroke-width:5;stroke-miterlimit:4;stroke-dasharray:none;stroke-opacity:1"
   id="g80"
   transform="translate(-143.9981,186.06496)">
		<polygon
   style="fill:#326007;stroke:#000000;stroke-width:5;stroke-miterlimit:4;stroke-dasharray:none;stroke-opacity:1"
   class="st0"
   points="578.45,455.83 564.15,499.86 517.85,499.86 503.55,455.83 541,428.62 "
   id="polygon74" />
		<g
   style="stroke:#000000;stroke-width:5;stroke-miterlimit:4;stroke-dasharray:none;stroke-opacity:1"
   id="g78">
			<path
   style="stroke:#000000;stroke-width:5;stroke-miterlimit:4;stroke-dasharray:none;stroke-opacity:1"
   inkscape:connector-curvature="0"
   d="m 541,429.24 36.87,26.79 -14.08,43.34 H 518.22 L 504.14,456.03 541,429.24 m 0,-1.24 -38.04,27.64 14.53,44.72 h 47.02 l 14.53,-44.72 z"
   id="path76" />
		</g>
	</g>
</g>
</svg>